<svg viewBox="0 0 20 20" fill="none" xmlns="http://www.w3.org/2000/svg">
<path d="M9.28001 0.800002L8.78001 1.3C7.44001 0.550002 5.84001 0.400002 4.41001 0.870002L4.33001 0.800002C3.36001 -0.179998 1.77001 -0.179998 0.800011 0.800002C-0.169989 1.78 -0.179989 3.36 0.800011 4.33L0.870011 4.41C0.400011 5.84 0.550011 7.44 1.30001 8.78L0.800011 9.28C0.659721 9.41859 0.548337 9.58365 0.472316 9.76561C0.396295 9.94756 0.35715 10.1428 0.35715 10.34C0.35715 10.5372 0.396295 10.7324 0.472316 10.9144C0.548337 11.0964 0.659721 11.2614 0.800011 11.4L2.21001 12.82C2.80001 13.4 3.74001 13.4 4.33001 12.82L4.68001 12.46L11.76 19.53C12.34 20.12 13.29 20.12 13.88 19.53L19.53 13.88C20.12 13.29 20.12 12.34 19.53 11.75L12.46 4.68L12.82 4.33C13.4 3.74 13.4 2.8 12.82 2.21L11.4 0.790002C11.1174 0.510424 10.7354 0.35444 10.3379 0.356315C9.94044 0.358191 9.55993 0.517771 9.28001 0.800002ZM2.25001 5.05C2.33001 4.71 2.47001 4.38 2.66001 4.07L1.86001 3.27C1.75265 3.16863 1.6734 3.04115 1.63001 2.9C1.50001 2.56 1.57001 2.14 1.86001 1.86C2.15001 1.58 2.56001 1.5 2.90001 1.63C3.04001 1.67 3.16001 1.75 3.27001 1.86L4.07001 2.66C4.38001 2.47 4.71001 2.33 5.05001 2.25C5.91001 2 6.83001 2.06 7.65001 2.42L2.42001 7.65C2.06001 6.83 2.00001 5.91 2.25001 5.05ZM18.47 12.82L12.82 18.47L5.75001 11.4L11.4 5.75L18.47 12.82ZM11.76 3.27L3.27001 11.76L1.86001 10.34L10.34 1.86L11.76 3.27ZM12.82 9.63L9.63001 12.82L8.57001 11.76L11.76 8.57L12.82 9.63ZM14.94 11.76L11.76 14.94L10.69 13.88L13.88 10.69L14.94 11.76Z" fill="black"/>
</svg>
