<svg viewBox="0 0 375 119" fill="none" preserveAspectRatio="none" xmlns="http://www.w3.org/2000/svg" class="w-full h-48">
<path fill-rule="evenodd" clip-rule="evenodd" d="M375 119L359.375 119C343.75 119 312.5 119 281.25 112.389C250 105.778 218.75 92.5556 187.5 88.1482C156.25 83.7408 125 88.1482 93.75 79.3333C62.5 70.5185 31.25 48.4815 15.625 37.463L8.09146e-06 26.4444L1.04033e-05 1.0719e-06L15.625 2.43788e-06C31.25 3.80386e-06 62.5 6.53582e-06 93.75 9.26778e-06C125 1.19997e-05 156.25 1.47317e-05 187.5 1.74637e-05C218.75 2.01956e-05 250 2.29276e-05 281.25 2.56596e-05C312.5 2.83915e-05 343.75 3.11235e-05 359.375 3.24895e-05L375 3.38554e-05L375 119Z" fill="#667EEA"/>
</svg>
